<svg xmlns="http://www.w3.org/2000/svg" xmlns:xlink="http://www.w3.org/1999/xlink" width="1080" zoomAndPan="magnify" viewBox="0 0 810 809.999993" height="1080" preserveAspectRatio="xMidYMid meet" version="1.0"><defs><g/><clipPath id="41d2497391"><rect x="0" width="767" y="0" height="392"/></clipPath></defs><g transform="matrix(1, 0, 0, 1, 29, 231)"><g clip-path="url(#41d2497391)"><g fill="#000000" fill-opacity="1"><g transform="translate(0.492906, 148.707815)"><g><path d="M 60.203125 0 L 36.03125 0 L 1.796875 -101.296875 L 23.078125 -101.296875 L 47.671875 -25.765625 L 49.40625 -25.765625 L 73.640625 -101.296875 L 94.359375 -101.296875 Z M 60.203125 0 "/></g></g></g><g fill="#000000" fill-opacity="1"><g transform="translate(90.8374, 148.707815)"><g><path d="M 75.515625 -33.875 L 26.390625 -33.875 C 26.953125 -27.226562 28.847656 -22.390625 32.078125 -19.359375 C 35.304688 -16.335938 39.71875 -14.828125 45.3125 -14.828125 C 49.695312 -14.828125 53.25 -15.644531 55.96875 -17.28125 C 58.695312 -18.925781 60.894531 -21.410156 62.5625 -24.734375 L 64.015625 -24.734375 L 76.765625 -16.5625 C 74.273438 -11.195312 70.507812 -6.851562 65.46875 -3.53125 C 60.4375 -0.207031 53.71875 1.453125 45.3125 1.453125 C 37.414062 1.453125 30.59375 -0.046875 24.84375 -3.046875 C 19.09375 -6.046875 14.65625 -10.515625 11.53125 -16.453125 C 8.414062 -22.390625 6.859375 -29.628906 6.859375 -38.171875 C 6.859375 -46.859375 8.5 -54.179688 11.78125 -60.140625 C 15.0625 -66.097656 19.492188 -70.539062 25.078125 -73.46875 C 30.671875 -76.40625 36.953125 -77.875 43.921875 -77.875 C 54.734375 -77.875 63.015625 -75.007812 68.765625 -69.28125 C 74.515625 -63.550781 77.390625 -55.144531 77.390625 -44.0625 C 77.390625 -40.039062 77.25 -36.921875 76.96875 -34.703125 Z M 59.03125 -46.28125 C 58.84375 -52.101562 57.488281 -56.34375 54.96875 -59 C 52.457031 -61.65625 48.773438 -62.984375 43.921875 -62.984375 C 34.222656 -62.984375 28.519531 -57.414062 26.8125 -46.28125 Z M 59.03125 -46.28125 "/></g></g><g transform="translate(173.907222, 148.707815)"><g><path d="M 52.578125 0 L 29.71875 0 L 1.453125 -76.421875 L 21.546875 -76.421875 L 40.53125 -21.96875 L 42.125 -21.96875 L 61.171875 -76.421875 L 80.78125 -76.421875 Z M 52.578125 0 "/></g></g></g><g fill="#000000" fill-opacity="1"><g transform="translate(254.621436, 148.707815)"><g><path d="M 44.40625 1.453125 C 36.925781 1.453125 30.359375 -0.0820312 24.703125 -3.15625 C 19.046875 -6.226562 14.65625 -10.726562 11.53125 -16.65625 C 8.414062 -22.59375 6.859375 -29.765625 6.859375 -38.171875 C 6.859375 -46.578125 8.414062 -53.757812 11.53125 -59.71875 C 14.65625 -65.675781 19.046875 -70.191406 24.703125 -73.265625 C 30.359375 -76.335938 36.925781 -77.875 44.40625 -77.875 C 51.894531 -77.875 58.46875 -76.335938 64.125 -73.265625 C 69.78125 -70.191406 74.175781 -65.675781 77.3125 -59.71875 C 80.457031 -53.757812 82.03125 -46.578125 82.03125 -38.171875 C 82.03125 -29.765625 80.457031 -22.59375 77.3125 -16.65625 C 74.175781 -10.726562 69.78125 -6.226562 64.125 -3.15625 C 58.46875 -0.0820312 51.894531 1.453125 44.40625 1.453125 Z M 44.40625 -14.828125 C 56.28125 -14.828125 62.21875 -22.609375 62.21875 -38.171875 C 62.21875 -46.253906 60.691406 -52.175781 57.640625 -55.9375 C 54.597656 -59.707031 50.1875 -61.59375 44.40625 -61.59375 C 32.539062 -61.59375 26.609375 -53.785156 26.609375 -38.171875 C 26.609375 -22.609375 32.539062 -14.828125 44.40625 -14.828125 Z M 44.40625 -14.828125 "/></g></g><g transform="translate(343.441712, 148.707815)"><g/></g><g transform="translate(376.905201, 148.707815)"><g><path d="M 13.15625 0 L 13.15625 -101.296875 L 33.1875 -101.296875 L 33.1875 -59.921875 L 35.40625 -59.921875 L 69.21875 -101.296875 L 89.71875 -101.296875 L 89.71875 -99.5625 L 52.453125 -53.484375 L 93.59375 -1.734375 L 93.59375 0 L 70.953125 0 L 35.40625 -43.71875 L 33.1875 -43.71875 L 33.1875 0 Z M 13.15625 0 "/></g></g><g transform="translate(470.505977, 148.707815)"><g><path d="M 11.015625 0 L 11.015625 -76.421875 L 29.4375 -76.421875 L 29.4375 -65.1875 L 30.90625 -64.84375 C 35.65625 -73.53125 43.367188 -77.875 54.046875 -77.875 C 62.859375 -77.875 69.332031 -75.472656 73.46875 -70.671875 C 77.601562 -65.867188 79.671875 -58.867188 79.671875 -49.671875 L 79.671875 0 L 60.484375 0 L 60.484375 -47.3125 C 60.484375 -52.394531 59.46875 -56.054688 57.4375 -58.296875 C 55.40625 -60.535156 52.148438 -61.65625 47.671875 -61.65625 C 42.171875 -61.65625 37.882812 -59.875 34.8125 -56.3125 C 31.738281 -52.757812 30.203125 -47.175781 30.203125 -39.5625 L 30.203125 0 Z M 11.015625 0 "/></g></g><g transform="translate(560.01908, 148.707815)"><g><path d="M 20.578125 -85.5625 C 17.109375 -85.5625 14.289062 -86.613281 12.125 -88.71875 C 9.957031 -90.820312 8.875 -93.535156 8.875 -96.859375 C 8.875 -100.140625 9.957031 -102.828125 12.125 -104.921875 C 14.289062 -107.023438 17.109375 -108.078125 20.578125 -108.078125 C 22.890625 -108.078125 24.941406 -107.59375 26.734375 -106.625 C 28.535156 -105.65625 29.929688 -104.328125 30.921875 -102.640625 C 31.921875 -100.953125 32.421875 -99.023438 32.421875 -96.859375 C 32.421875 -94.679688 31.921875 -92.738281 30.921875 -91.03125 C 29.929688 -89.320312 28.535156 -87.984375 26.734375 -87.015625 C 24.941406 -86.046875 22.890625 -85.5625 20.578125 -85.5625 Z M 11.015625 0 L 11.015625 -76.421875 L 30.203125 -76.421875 L 30.203125 0 Z M 11.015625 0 "/></g></g><g transform="translate(601.172936, 148.707815)"><g><path d="M 52.71875 -18.21875 L 57.71875 -4.015625 C 55.632812 -2.304688 53.019531 -0.96875 49.875 0 C 46.738281 0.96875 43.1875 1.453125 39.21875 1.453125 C 30.945312 1.453125 24.660156 -0.796875 20.359375 -5.296875 C 16.066406 -9.804688 13.921875 -16.351562 13.921875 -24.9375 L 13.921875 -61.25 L 2.28125 -61.25 L 2.28125 -76.484375 L 13.921875 -76.484375 L 13.921875 -91.390625 L 33.109375 -94.5 L 33.109375 -76.484375 L 54.796875 -76.484375 L 54.796875 -61.25 L 33.109375 -61.25 L 33.109375 -26.328125 C 33.109375 -22.535156 33.894531 -19.773438 35.46875 -18.046875 C 37.039062 -16.316406 39.328125 -15.453125 42.328125 -15.453125 C 45.742188 -15.453125 48.722656 -16.375 51.265625 -18.21875 Z M 52.71875 -18.21875 "/></g></g><g transform="translate(660.548113, 148.707815)"><g><path d="M 35.75 1.453125 C 30.53125 1.453125 25.75 0.84375 21.40625 -0.375 C 17.0625 -1.601562 13.351562 -3.289062 10.28125 -5.4375 C 7.21875 -7.582031 4.945312 -10.039062 3.46875 -12.8125 L 14.140625 -24.3125 L 15.59375 -24.3125 C 18.132812 -20.894531 21.132812 -18.332031 24.59375 -16.625 C 28.0625 -14.914062 31.828125 -14.0625 35.890625 -14.0625 C 39.628906 -14.0625 42.445312 -14.726562 44.34375 -16.0625 C 46.238281 -17.40625 47.1875 -19.328125 47.1875 -21.828125 C 47.1875 -23.765625 46.503906 -25.390625 45.140625 -26.703125 C 43.773438 -28.023438 41.566406 -29.054688 38.515625 -29.796875 L 28.40625 -32.21875 C 20.832031 -34.019531 15.300781 -36.78125 11.8125 -40.5 C 8.320312 -44.21875 6.578125 -48.9375 6.578125 -54.65625 C 6.578125 -59.414062 7.789062 -63.550781 10.21875 -67.0625 C 12.644531 -70.570312 16.0625 -73.25 20.46875 -75.09375 C 24.882812 -76.945312 30.023438 -77.875 35.890625 -77.875 C 42.773438 -77.875 48.476562 -76.878906 53 -74.890625 C 57.53125 -72.910156 61.0625 -70.253906 63.59375 -66.921875 L 53.34375 -55.84375 L 51.96875 -55.84375 C 49.84375 -58.238281 47.453125 -59.988281 44.796875 -61.09375 C 42.140625 -62.207031 39.171875 -62.765625 35.890625 -62.765625 C 28.316406 -62.765625 24.53125 -60.410156 24.53125 -55.703125 C 24.53125 -53.710938 25.234375 -52.09375 26.640625 -50.84375 C 28.046875 -49.601562 30.53125 -48.59375 34.09375 -47.8125 L 43.515625 -45.71875 C 51.273438 -44.0625 56.941406 -41.394531 60.515625 -37.71875 C 64.097656 -34.050781 65.890625 -29.125 65.890625 -22.9375 C 65.890625 -18.082031 64.6875 -13.804688 62.28125 -10.109375 C 59.882812 -6.421875 56.421875 -3.570312 51.890625 -1.5625 C 47.367188 0.445312 41.988281 1.453125 35.75 1.453125 Z M 35.75 1.453125 "/></g></g></g><g fill="#000000" fill-opacity="1"><g transform="translate(731.008505, 148.707815)"><g/></g></g><g fill="#000000" fill-opacity="1"><g transform="translate(42.339589, 346.763637)"><g><path d="M 49.1875 1.453125 C 40.738281 1.453125 33.429688 -0.472656 27.265625 -4.328125 C 21.097656 -8.179688 16.335938 -14 12.984375 -21.78125 C 9.640625 -29.570312 7.96875 -39.191406 7.96875 -50.640625 C 7.96875 -62.191406 9.972656 -71.859375 13.984375 -79.640625 C 18.003906 -87.421875 23.582031 -93.21875 30.71875 -97.03125 C 37.863281 -100.84375 46.144531 -102.75 55.5625 -102.75 C 65.257812 -102.75 73.523438 -100.945312 80.359375 -97.34375 C 87.203125 -93.738281 92.007812 -88.378906 94.78125 -81.265625 L 80.15625 -72.40625 L 78.421875 -72.46875 C 76.347656 -77 73.425781 -80.300781 69.65625 -82.375 C 65.894531 -84.457031 61.195312 -85.5 55.5625 -85.5 C 46.832031 -85.5 40.15625 -82.738281 35.53125 -77.21875 C 30.914062 -71.695312 28.609375 -62.835938 28.609375 -50.640625 C 28.609375 -38.398438 30.765625 -29.507812 35.078125 -23.96875 C 39.398438 -18.425781 45.789062 -15.65625 54.25 -15.65625 C 61.539062 -15.65625 66.921875 -17.296875 70.390625 -20.578125 C 73.859375 -23.859375 75.59375 -28.753906 75.59375 -35.265625 L 75.59375 -39.625 L 51.609375 -39.625 L 51.609375 -55.90625 L 95.46875 -55.90625 L 95.46875 0 L 76.34375 0 L 76.34375 -13.578125 L 74.890625 -13.78125 C 72.816406 -8.9375 69.664062 -5.1875 65.4375 -2.53125 C 61.207031 0.125 55.789062 1.453125 49.1875 1.453125 Z M 49.1875 1.453125 "/></g></g><g transform="translate(147.995535, 346.763637)"><g><path d="M 29.796875 1.453125 C 24.898438 1.453125 20.648438 0.550781 17.046875 -1.25 C 13.441406 -3.050781 10.664062 -5.691406 8.71875 -9.171875 C 6.78125 -12.660156 5.8125 -16.851562 5.8125 -21.75 C 5.8125 -26.28125 6.78125 -30.082031 8.71875 -33.15625 C 10.664062 -36.226562 13.671875 -38.742188 17.734375 -40.703125 C 21.796875 -42.660156 27.109375 -44.171875 33.671875 -45.234375 C 38.242188 -45.972656 41.71875 -46.78125 44.09375 -47.65625 C 46.476562 -48.539062 48.082031 -49.535156 48.90625 -50.640625 C 49.738281 -51.753906 50.15625 -53.164062 50.15625 -54.875 C 50.15625 -57.320312 49.300781 -59.191406 47.59375 -60.484375 C 45.882812 -61.773438 43.046875 -62.421875 39.078125 -62.421875 C 34.828125 -62.421875 30.785156 -61.472656 26.953125 -59.578125 C 23.117188 -57.691406 19.789062 -55.195312 16.96875 -52.09375 L 15.59375 -52.09375 L 7.546875 -64.21875 C 11.429688 -68.519531 16.164062 -71.867188 21.75 -74.265625 C 27.34375 -76.671875 33.441406 -77.875 40.046875 -77.875 C 50.160156 -77.875 57.476562 -75.722656 62 -71.421875 C 66.53125 -67.128906 68.796875 -61.035156 68.796875 -53.140625 L 68.796875 -19.953125 C 68.796875 -16.535156 70.296875 -14.828125 73.296875 -14.828125 C 74.453125 -14.828125 75.585938 -15.035156 76.703125 -15.453125 L 77.671875 -15.171875 L 79.046875 -1.796875 C 77.984375 -1.109375 76.503906 -0.546875 74.609375 -0.109375 C 72.722656 0.328125 70.644531 0.546875 68.375 0.546875 C 63.800781 0.546875 60.234375 -0.328125 57.671875 -2.078125 C 55.109375 -3.835938 53.273438 -6.585938 52.171875 -10.328125 L 50.71875 -10.46875 C 46.976562 -2.519531 40.003906 1.453125 29.796875 1.453125 Z M 35.890625 -12.890625 C 40.328125 -12.890625 43.867188 -14.378906 46.515625 -17.359375 C 49.171875 -20.335938 50.5 -24.484375 50.5 -29.796875 L 50.5 -37.546875 L 49.1875 -37.828125 C 48.03125 -36.898438 46.515625 -36.125 44.640625 -35.5 C 42.773438 -34.882812 40.085938 -34.273438 36.578125 -33.671875 C 32.421875 -32.972656 29.429688 -31.78125 27.609375 -30.09375 C 25.785156 -28.414062 24.875 -26.03125 24.875 -22.9375 C 24.875 -19.65625 25.84375 -17.160156 27.78125 -15.453125 C 29.71875 -13.742188 32.421875 -12.890625 35.890625 -12.890625 Z M 35.890625 -12.890625 "/></g></g><g transform="translate(228.571183, 346.763637)"><g><path d="M 11.015625 0 L 11.015625 -76.421875 L 29.65625 -76.421875 L 29.65625 -65.0625 L 31.109375 -64.78125 C 32.953125 -69.03125 35.375 -72.144531 38.375 -74.125 C 41.382812 -76.113281 45.035156 -77.109375 49.328125 -77.109375 C 53.671875 -77.109375 56.972656 -76.367188 59.234375 -74.890625 L 55.984375 -58.328125 L 54.53125 -58.0625 C 53.28125 -58.570312 52.078125 -58.941406 50.921875 -59.171875 C 49.765625 -59.398438 48.359375 -59.515625 46.703125 -59.515625 C 41.335938 -59.515625 37.242188 -57.628906 34.421875 -53.859375 C 31.609375 -50.097656 30.203125 -44.0625 30.203125 -35.75 L 30.203125 0 Z M 11.015625 0 "/></g></g><g transform="translate(288.500621, 346.763637)"><g><path d="M 11.015625 0 L 11.015625 -76.421875 L 29.4375 -76.421875 L 29.4375 -66.171875 L 30.90625 -65.890625 C 33.394531 -69.992188 36.3125 -73.015625 39.65625 -74.953125 C 43.007812 -76.898438 47.296875 -77.875 52.515625 -77.875 C 58.285156 -77.875 62.925781 -76.726562 66.4375 -74.4375 C 69.945312 -72.15625 72.507812 -68.820312 74.125 -64.4375 L 75.59375 -64.4375 C 77.945312 -69.007812 80.984375 -72.390625 84.703125 -74.578125 C 88.421875 -76.773438 93.050781 -77.875 98.59375 -77.875 C 114.4375 -77.875 122.359375 -69.050781 122.359375 -51.40625 L 122.359375 0 L 103.15625 0 L 103.15625 -48.984375 C 103.15625 -53.460938 102.273438 -56.691406 100.515625 -58.671875 C 98.765625 -60.660156 95.953125 -61.65625 92.078125 -61.65625 C 81.546875 -61.65625 76.28125 -54.613281 76.28125 -40.53125 L 76.28125 0 L 57.09375 0 L 57.09375 -48.984375 C 57.09375 -53.460938 56.203125 -56.691406 54.421875 -58.671875 C 52.640625 -60.660156 49.8125 -61.65625 45.9375 -61.65625 C 40.988281 -61.65625 37.128906 -60.003906 34.359375 -56.703125 C 31.585938 -53.398438 30.203125 -48.148438 30.203125 -40.953125 L 30.203125 0 Z M 11.015625 0 "/></g></g><g transform="translate(420.691798, 346.763637)"><g><path d="M 75.515625 -33.875 L 26.390625 -33.875 C 26.953125 -27.226562 28.847656 -22.390625 32.078125 -19.359375 C 35.304688 -16.335938 39.71875 -14.828125 45.3125 -14.828125 C 49.695312 -14.828125 53.25 -15.644531 55.96875 -17.28125 C 58.695312 -18.925781 60.894531 -21.410156 62.5625 -24.734375 L 64.015625 -24.734375 L 76.765625 -16.5625 C 74.273438 -11.195312 70.507812 -6.851562 65.46875 -3.53125 C 60.4375 -0.207031 53.71875 1.453125 45.3125 1.453125 C 37.414062 1.453125 30.59375 -0.046875 24.84375 -3.046875 C 19.09375 -6.046875 14.65625 -10.515625 11.53125 -16.453125 C 8.414062 -22.390625 6.859375 -29.628906 6.859375 -38.171875 C 6.859375 -46.859375 8.5 -54.179688 11.78125 -60.140625 C 15.0625 -66.097656 19.492188 -70.539062 25.078125 -73.46875 C 30.671875 -76.40625 36.953125 -77.875 43.921875 -77.875 C 54.734375 -77.875 63.015625 -75.007812 68.765625 -69.28125 C 74.515625 -63.550781 77.390625 -55.144531 77.390625 -44.0625 C 77.390625 -40.039062 77.25 -36.921875 76.96875 -34.703125 Z M 59.03125 -46.28125 C 58.84375 -52.101562 57.488281 -56.34375 54.96875 -59 C 52.457031 -61.65625 48.773438 -62.984375 43.921875 -62.984375 C 34.222656 -62.984375 28.519531 -57.414062 26.8125 -46.28125 Z M 59.03125 -46.28125 "/></g></g><g transform="translate(503.76162, 346.763637)"><g><path d="M 11.015625 0 L 11.015625 -76.421875 L 29.4375 -76.421875 L 29.4375 -65.1875 L 30.90625 -64.84375 C 35.65625 -73.53125 43.367188 -77.875 54.046875 -77.875 C 62.859375 -77.875 69.332031 -75.472656 73.46875 -70.671875 C 77.601562 -65.867188 79.671875 -58.867188 79.671875 -49.671875 L 79.671875 0 L 60.484375 0 L 60.484375 -47.3125 C 60.484375 -52.394531 59.46875 -56.054688 57.4375 -58.296875 C 55.40625 -60.535156 52.148438 -61.65625 47.671875 -61.65625 C 42.171875 -61.65625 37.882812 -59.875 34.8125 -56.3125 C 31.738281 -52.757812 30.203125 -47.175781 30.203125 -39.5625 L 30.203125 0 Z M 11.015625 0 "/></g></g></g><g fill="#000000" fill-opacity="1"><g transform="translate(592.720461, 346.763637)"><g><path d="M 52.71875 -18.21875 L 57.71875 -4.015625 C 55.632812 -2.304688 53.019531 -0.96875 49.875 0 C 46.738281 0.96875 43.1875 1.453125 39.21875 1.453125 C 30.945312 1.453125 24.660156 -0.796875 20.359375 -5.296875 C 16.066406 -9.804688 13.921875 -16.351562 13.921875 -24.9375 L 13.921875 -61.25 L 2.28125 -61.25 L 2.28125 -76.484375 L 13.921875 -76.484375 L 13.921875 -91.390625 L 33.109375 -94.5 L 33.109375 -76.484375 L 54.796875 -76.484375 L 54.796875 -61.25 L 33.109375 -61.25 L 33.109375 -26.328125 C 33.109375 -22.535156 33.894531 -19.773438 35.46875 -18.046875 C 37.039062 -16.316406 39.328125 -15.453125 42.328125 -15.453125 C 45.742188 -15.453125 48.722656 -16.375 51.265625 -18.21875 Z M 52.71875 -18.21875 "/></g></g><g transform="translate(652.095638, 346.763637)"><g><path d="M 35.75 1.453125 C 30.53125 1.453125 25.75 0.84375 21.40625 -0.375 C 17.0625 -1.601562 13.351562 -3.289062 10.28125 -5.4375 C 7.21875 -7.582031 4.945312 -10.039062 3.46875 -12.8125 L 14.140625 -24.3125 L 15.59375 -24.3125 C 18.132812 -20.894531 21.132812 -18.332031 24.59375 -16.625 C 28.0625 -14.914062 31.828125 -14.0625 35.890625 -14.0625 C 39.628906 -14.0625 42.445312 -14.726562 44.34375 -16.0625 C 46.238281 -17.40625 47.1875 -19.328125 47.1875 -21.828125 C 47.1875 -23.765625 46.503906 -25.390625 45.140625 -26.703125 C 43.773438 -28.023438 41.566406 -29.054688 38.515625 -29.796875 L 28.40625 -32.21875 C 20.832031 -34.019531 15.300781 -36.78125 11.8125 -40.5 C 8.320312 -44.21875 6.578125 -48.9375 6.578125 -54.65625 C 6.578125 -59.414062 7.789062 -63.550781 10.21875 -67.0625 C 12.644531 -70.570312 16.0625 -73.25 20.46875 -75.09375 C 24.882812 -76.945312 30.023438 -77.875 35.890625 -77.875 C 42.773438 -77.875 48.476562 -76.878906 53 -74.890625 C 57.53125 -72.910156 61.0625 -70.253906 63.59375 -66.921875 L 53.34375 -55.84375 L 51.96875 -55.84375 C 49.84375 -58.238281 47.453125 -59.988281 44.796875 -61.09375 C 42.140625 -62.207031 39.171875 -62.765625 35.890625 -62.765625 C 28.316406 -62.765625 24.53125 -60.410156 24.53125 -55.703125 C 24.53125 -53.710938 25.234375 -52.09375 26.640625 -50.84375 C 28.046875 -49.601562 30.53125 -48.59375 34.09375 -47.8125 L 43.515625 -45.71875 C 51.273438 -44.0625 56.941406 -41.394531 60.515625 -37.71875 C 64.097656 -34.050781 65.890625 -29.125 65.890625 -22.9375 C 65.890625 -18.082031 64.6875 -13.804688 62.28125 -10.109375 C 59.882812 -6.421875 56.421875 -3.570312 51.890625 -1.5625 C 47.367188 0.445312 41.988281 1.453125 35.75 1.453125 Z M 35.75 1.453125 "/></g></g></g></g></g></svg>